<svg width="63" height="16" viewBox="0 0 63 16" fill="none" xmlns="http://www.w3.org/2000/svg">
<path d="M34.6064 9.75977C34.5062 10.8216 34.1143 11.651 33.4307 12.248C32.7471 12.8405 31.8379 13.1367 30.7031 13.1367C29.9102 13.1367 29.2106 12.9499 28.6045 12.5762C28.0029 12.1979 27.5381 11.6624 27.21 10.9697C26.8818 10.277 26.7109 9.47266 26.6973 8.55664V7.62695C26.6973 6.68815 26.8636 5.861 27.1963 5.14551C27.529 4.43001 28.0052 3.87858 28.625 3.49121C29.2493 3.10384 29.9694 2.91016 30.7852 2.91016C31.8835 2.91016 32.7676 3.20866 33.4375 3.80566C34.1074 4.40267 34.4971 5.24577 34.6064 6.33496H32.8838C32.8018 5.61947 32.5921 5.10449 32.2549 4.79004C31.9222 4.47103 31.4323 4.31152 30.7852 4.31152C30.0332 4.31152 29.4544 4.58724 29.0488 5.13867C28.6478 5.68555 28.4427 6.48991 28.4336 7.55176V8.43359C28.4336 9.50911 28.625 10.3294 29.0078 10.8945C29.3952 11.4596 29.9603 11.7422 30.7031 11.7422C31.3822 11.7422 31.8926 11.5895 32.2344 11.2842C32.5762 10.9788 32.7926 10.4707 32.8838 9.75977H34.6064ZM44.0605 13H42.3379V8.57715H37.8877V13H36.1582V3.04688H37.8877V7.18945H42.3379V3.04688H44.0605V13ZM51.8057 10.6826H47.9502L47.1436 13H45.3457L49.1055 3.04688H50.6572L54.4238 13H52.6191L51.8057 10.6826ZM48.4355 9.28809H51.3203L49.8779 5.15918L48.4355 9.28809ZM61.9297 4.44141H58.8262V13H57.1104V4.44141H54.0342V3.04688H61.9297V4.44141Z" fill="white"/>
<path d="M8 2.00001C11.676 2.00001 14.6667 4.45667 14.6667 7.47534C14.6667 10.8353 11.236 12.9147 8.058 12.9147C6.70667 12.9147 5.69267 12.622 5.026 12.44L2.35667 13.2373L3.19133 11.304C2.55667 10.6373 1.33333 9.57867 1.33333 7.47534C1.33333 4.45667 4.324 2.00001 8 2.00001ZM8 0.666672C3.58133 0.666672 0 3.71534 0 7.47534C0 9.06867 0.621333 10.536 1.618 11.5847L0 15.3333L5.042 13.8267C6.09867 14.116 7.10933 14.248 8.05733 14.248C12.7893 14.2487 16 10.9607 16 7.47534C16 3.71534 12.4187 0.666672 8 0.666672Z" fill="white"/>
</svg>
