<svg width="116" height="17" viewBox="0 0 116 17" fill="none" xmlns="http://www.w3.org/2000/svg">
<path d="M29.7412 10.3018V14H28.0117V4.04688H31.8193C32.9313 4.04688 33.8132 4.33626 34.4648 4.91504C35.1211 5.49382 35.4492 6.25944 35.4492 7.21191C35.4492 8.18717 35.1279 8.94596 34.4854 9.48828C33.8473 10.0306 32.9518 10.3018 31.7988 10.3018H29.7412ZM29.7412 8.91406H31.8193C32.4346 8.91406 32.904 8.77051 33.2275 8.4834C33.5511 8.19173 33.7129 7.77246 33.7129 7.22559C33.7129 6.68783 33.5488 6.25944 33.2207 5.94043C32.8926 5.61686 32.4414 5.45052 31.8672 5.44141H29.7412V8.91406ZM41.3213 11.6826H37.4658L36.6592 14H34.8613L38.6211 4.04688H40.1729L43.9395 14H42.1348L41.3213 11.6826ZM37.9512 10.2881H40.8359L39.3936 6.15918L37.9512 10.2881ZM48.7314 10.165H46.8037V14H45.0742V4.04688H48.5742C49.7227 4.04688 50.609 4.30436 51.2334 4.81934C51.8577 5.33431 52.1699 6.07943 52.1699 7.05469C52.1699 7.72005 52.0081 8.27832 51.6846 8.72949C51.3656 9.17611 50.9189 9.52018 50.3447 9.76172L52.5801 13.9111V14H50.7275L48.7314 10.165ZM46.8037 8.77734H48.5811C49.1644 8.77734 49.6201 8.63151 49.9482 8.33984C50.2764 8.04362 50.4404 7.6403 50.4404 7.12988C50.4404 6.59668 50.2878 6.18424 49.9824 5.89258C49.6816 5.60091 49.2305 5.45052 48.6289 5.44141H46.8037V8.77734ZM60.6602 5.44141H57.5566V14H55.8408V5.44141H52.7646V4.04688H60.6602V5.44141ZM63.7979 14H62.0752V4.04688H63.7979V14ZM73.5186 10.7598C73.4183 11.8216 73.0264 12.651 72.3428 13.248C71.6592 13.8405 70.75 14.1367 69.6152 14.1367C68.8223 14.1367 68.1227 13.9499 67.5166 13.5762C66.915 13.1979 66.4502 12.6624 66.1221 11.9697C65.7939 11.277 65.623 10.4727 65.6094 9.55664V8.62695C65.6094 7.68815 65.7757 6.861 66.1084 6.14551C66.4411 5.43001 66.9173 4.87858 67.5371 4.49121C68.1615 4.10384 68.8815 3.91016 69.6973 3.91016C70.7956 3.91016 71.6797 4.20866 72.3496 4.80566C73.0195 5.40267 73.4092 6.24577 73.5186 7.33496H71.7959C71.7139 6.61947 71.5042 6.10449 71.167 5.79004C70.8343 5.47103 70.3444 5.31152 69.6973 5.31152C68.9453 5.31152 68.3665 5.58724 67.9609 6.13867C67.5599 6.68555 67.3548 7.48991 67.3457 8.55176V9.43359C67.3457 10.5091 67.5371 11.3294 67.9199 11.8945C68.3073 12.4596 68.8724 12.7422 69.6152 12.7422C70.2943 12.7422 70.8047 12.5895 71.1465 12.2842C71.4883 11.9788 71.7048 11.4707 71.7959 10.7598H73.5186ZM76.8955 14H75.1729V4.04688H76.8955V14ZM80.751 10.3018V14H79.0215V4.04688H82.8291C83.9411 4.04688 84.8229 4.33626 85.4746 4.91504C86.1309 5.49382 86.459 6.25944 86.459 7.21191C86.459 8.18717 86.1377 8.94596 85.4951 9.48828C84.8571 10.0306 83.9616 10.3018 82.8086 10.3018H80.751ZM80.751 8.91406H82.8291C83.4443 8.91406 83.9137 8.77051 84.2373 8.4834C84.5609 8.19173 84.7227 7.77246 84.7227 7.22559C84.7227 6.68783 84.5586 6.25944 84.2305 5.94043C83.9023 5.61686 83.4512 5.45052 82.877 5.44141H80.751V8.91406ZM92.3311 11.6826H88.4756L87.6689 14H85.8711L89.6309 4.04688H91.1826L94.9492 14H93.1445L92.3311 11.6826ZM88.9609 10.2881H91.8457L90.4033 6.15918L88.9609 10.2881ZM103.979 14H102.25L97.8135 6.93848V14H96.084V4.04688H97.8135L102.264 11.1357V4.04688H103.979V14ZM113.01 5.44141H109.906V14H108.19V5.44141H105.114V4.04688H113.01V5.44141Z" fill="white"/>
<path d="M6.40141 2.46667C5.63208 3.758 5.97808 5.95133 7.35075 8.48333C7.97075 9.62467 7.81541 10.4967 7.57608 11.0267C6.92141 12.4787 5.12608 12.8927 3.22608 13.3307C1.91675 13.6333 2.00008 13.9107 2.00008 16H0.670081L0.666748 15.1727C0.666748 13.4927 0.799415 12.5227 2.78541 12.064C5.02875 11.546 7.24408 11.082 6.17875 9.11867C3.02341 3.29933 5.27875 0 8.66675 0C10.8807 0 12.6467 1.41133 12.6467 4.11133C12.6467 6.48133 11.3474 8.66667 11.0581 9.33333H9.64808C9.90941 8.30933 11.3141 6.42267 11.3141 4.10533C11.3141 0.67 7.40275 0.782 6.40141 2.46667ZM15.3334 12.6667H13.3334V10.6667H12.0001V12.6667H10.0001V14H12.0001V16H13.3334V14H15.3334V12.6667Z" fill="white"/>
</svg>
